<svg width="81" height="14" viewBox="0 0 81 14" fill="none" xmlns="http://www.w3.org/2000/svg">
<path d="M10.566 2.38419e-06V13.0909H8.75069L2.09657 3.49006H1.97512V13.0909H-2.2158e-05V2.38419e-06H1.8281L8.48861 9.61364H8.61006V2.38419e-06H10.566ZM17.4295 13.2891C16.509 13.2891 15.7058 13.0781 15.0197 12.6563C14.3336 12.2344 13.8009 11.6442 13.4217 10.8857C13.0424 10.1271 12.8528 9.24077 12.8528 8.22656C12.8528 7.2081 13.0424 6.31747 13.4217 5.55469C13.8009 4.79191 14.3336 4.19958 15.0197 3.7777C15.7058 3.35583 16.509 3.14489 17.4295 3.14489C18.3499 3.14489 19.1532 3.35583 19.8393 3.7777C20.5254 4.19958 21.058 4.79191 21.4373 5.55469C21.8166 6.31747 22.0062 7.2081 22.0062 8.22656C22.0062 9.24077 21.8166 10.1271 21.4373 10.8857C21.058 11.6442 20.5254 12.2344 19.8393 12.6563C19.1532 13.0781 18.3499 13.2891 17.4295 13.2891ZM17.4359 11.6847C18.0325 11.6847 18.5268 11.527 18.9188 11.2117C19.3109 10.8963 19.6007 10.4766 19.7882 9.95242C19.9799 9.42827 20.0758 8.85085 20.0758 8.22017C20.0758 7.59375 19.9799 7.01847 19.7882 6.49432C19.6007 5.96591 19.3109 5.54191 18.9188 5.2223C18.5268 4.9027 18.0325 4.7429 17.4359 4.7429C16.835 4.7429 16.3364 4.9027 15.9401 5.2223C15.5481 5.54191 15.2562 5.96591 15.0644 6.49432C14.8769 7.01847 14.7832 7.59375 14.7832 8.22017C14.7832 8.85085 14.8769 9.42827 15.0644 9.95242C15.2562 10.4766 15.5481 10.8963 15.9401 11.2117C16.3364 11.527 16.835 11.6847 17.4359 11.6847ZM28.7226 3.27273V4.80682H23.3597V3.27273H28.7226ZM24.7979 0.920457H26.7091V10.2081C26.7091 10.5788 26.7645 10.858 26.8753 11.0455C26.9861 11.2287 27.1289 11.3544 27.3036 11.4226C27.4826 11.4865 27.6765 11.5185 27.8853 11.5185C28.0387 11.5185 28.1729 11.5078 28.288 11.4865C28.403 11.4652 28.4925 11.4482 28.5564 11.4354L28.9016 13.0142C28.7908 13.0568 28.6331 13.0994 28.4286 13.142C28.2241 13.1889 27.9684 13.2145 27.6616 13.2188C27.1587 13.2273 26.69 13.1378 26.2553 12.9503C25.8206 12.7628 25.4691 12.473 25.2006 12.081C24.9322 11.6889 24.7979 11.1967 24.7979 10.6044V0.920457ZM34.9629 13.2891C33.9955 13.2891 33.1624 13.0824 32.4636 12.669C31.769 12.2514 31.232 11.6655 30.8528 10.9112C30.4778 10.1527 30.2903 9.26421 30.2903 8.24574C30.2903 7.24006 30.4778 6.3537 30.8528 5.58665C31.232 4.8196 31.7605 4.22088 32.438 3.79049C33.1198 3.36009 33.9167 3.14489 34.8286 3.14489C35.3826 3.14489 35.9195 3.23651 36.4394 3.41975C36.9593 3.60299 37.4259 3.89063 37.8393 4.28267C38.2526 4.67472 38.5786 5.18395 38.8173 5.81037C39.0559 6.43253 39.1752 7.18892 39.1752 8.07955V8.75711H31.3705V7.32529H37.3024C37.3024 6.82245 37.2001 6.37713 36.9955 5.98935C36.791 5.5973 36.5034 5.28835 36.1326 5.0625C35.7661 4.83665 35.3357 4.72372 34.8414 4.72372C34.3045 4.72372 33.8357 4.85583 33.4352 5.12003C33.0389 5.37997 32.732 5.72088 32.5147 6.14276C32.3016 6.56037 32.1951 7.01421 32.1951 7.50426V8.62287C32.1951 9.27912 32.3102 9.83736 32.5403 10.2976C32.7747 10.7578 33.1007 11.1094 33.5183 11.3523C33.9359 11.5909 34.4238 11.7102 34.982 11.7102C35.3443 11.7102 35.6745 11.6591 35.9728 11.5568C36.2711 11.4503 36.5289 11.2926 36.7462 11.0838C36.9636 10.875 37.1298 10.6172 37.2448 10.3104L39.0538 10.6364C38.9089 11.169 38.6489 11.6357 38.2739 12.0362C37.9032 12.4325 37.4366 12.7415 36.8741 12.9631C36.3159 13.1804 35.6788 13.2891 34.9629 13.2891Z" fill="white"/>
<path d="M52.0983 2.38419e-06V13.0909H49.7077L44.0124 4.85156H43.9165V13.0909H41.1488V2.38419e-06H43.5777L49.2283 8.23296H49.3434V2.38419e-06H52.0983ZM58.8084 13.2827C57.7985 13.2827 56.9291 13.0781 56.2004 12.669C55.476 12.2557 54.9178 11.6719 54.5257 10.9176C54.1337 10.1591 53.9377 9.26208 53.9377 8.22656C53.9377 7.21662 54.1337 6.33026 54.5257 5.56747C54.9178 4.80469 55.4696 4.21023 56.1813 3.78409C56.8972 3.35796 57.7367 3.14489 58.6997 3.14489C59.3475 3.14489 59.9504 3.24929 60.5087 3.4581C61.0712 3.66264 61.5612 3.97159 61.9788 4.38495C62.4007 4.7983 62.7288 5.31818 62.9632 5.9446C63.1976 6.56676 63.3148 7.29546 63.3148 8.13068V8.87855H55.0243V7.19105H60.7516C60.7516 6.79901 60.6663 6.45171 60.4959 6.14915C60.3254 5.84659 60.0889 5.61009 59.7864 5.43963C59.4881 5.26492 59.1408 5.17756 58.7445 5.17756C58.3311 5.17756 57.9646 5.27344 57.645 5.4652C57.3297 5.6527 57.0825 5.90625 56.9036 6.22585C56.7246 6.5412 56.633 6.89276 56.6287 7.28054V8.88495C56.6287 9.37074 56.7182 9.79049 56.8972 10.1442C57.0804 10.4979 57.3382 10.7706 57.6706 10.9624C58.003 11.1541 58.3972 11.25 58.8531 11.25C59.1557 11.25 59.4327 11.2074 59.6841 11.1222C59.9355 11.0369 60.1507 10.9091 60.3297 10.7386C60.5087 10.5682 60.645 10.3594 60.7388 10.1122L63.2573 10.2784C63.1294 10.8835 62.8673 11.4119 62.471 11.8636C62.079 12.3111 61.5719 12.6605 60.9497 12.9119C60.3318 13.1591 59.6181 13.2827 58.8084 13.2827ZM73.2608 6.07245L70.7679 6.22585C70.7253 6.01279 70.6337 5.82103 70.4931 5.65057C70.3524 5.47585 70.1671 5.33736 69.9369 5.23509C69.7111 5.12855 69.4405 5.07529 69.1252 5.07529C68.7033 5.07529 68.3475 5.16478 68.0577 5.34375C67.7679 5.51847 67.623 5.75284 67.623 6.04688C67.623 6.28125 67.7168 6.47941 67.9043 6.64134C68.0918 6.80327 68.4135 6.93324 68.8695 7.03125L70.6465 7.38921C71.601 7.58523 72.3127 7.90057 72.7814 8.33523C73.2502 8.76989 73.4845 9.34091 73.4845 10.0483C73.4845 10.6918 73.2949 11.2564 72.9156 11.7422C72.5406 12.228 72.025 12.6072 71.3688 12.88C70.7168 13.1484 69.9646 13.2827 69.1124 13.2827C67.8127 13.2827 66.7771 13.0121 66.0058 12.4709C65.2388 11.9254 64.7892 11.184 64.6571 10.2465L67.3354 10.1058C67.4163 10.5021 67.6124 10.8047 67.9235 11.0135C68.2345 11.218 68.633 11.3203 69.1188 11.3203C69.596 11.3203 69.9796 11.2287 70.2693 11.0455C70.5634 10.858 70.7125 10.6172 70.7168 10.3232C70.7125 10.076 70.6081 9.87358 70.4036 9.71591C70.199 9.55398 69.8837 9.4304 69.4575 9.34517L67.7573 9.00639C66.7985 8.81463 66.0847 8.48225 65.6159 8.00924C65.1514 7.53622 64.9192 6.93324 64.9192 6.20029C64.9192 5.5696 65.0896 5.02628 65.4306 4.57031C65.7757 4.11435 66.2594 3.76279 66.8815 3.51563C67.508 3.26847 68.2409 3.14489 69.0804 3.14489C70.3205 3.14489 71.2963 3.40696 72.008 3.93111C72.7239 4.45526 73.1415 5.16904 73.2608 6.07245ZM80.4215 3.27273V5.31818H74.5089V3.27273H80.4215ZM75.8512 0.920457H78.5742V10.0739C78.5742 10.3253 78.6125 10.5213 78.6893 10.6619C78.766 10.7983 78.8725 10.8942 79.0089 10.9496C79.1495 11.005 79.3114 11.0327 79.4947 11.0327C79.6225 11.0327 79.7503 11.022 79.8782 11.0007C80.006 10.9751 80.104 10.956 80.1722 10.9432L80.6005 12.9695C80.4641 13.0121 80.2724 13.0611 80.0252 13.1165C79.778 13.1761 79.4776 13.2124 79.1239 13.2251C78.4677 13.2507 77.8924 13.1634 77.3981 12.9631C76.908 12.7628 76.5266 12.4517 76.2539 12.0298C75.9812 11.608 75.8469 11.0753 75.8512 10.4318V0.920457Z" fill="#FFAC00"/>
</svg>
